.
 
http://www.scenetime.com    -  Hottest private tracker on the net. !!!

Sign up will close shortly !!  Join now 

        Seed back for speed


...................................NFO:.................................................[img]http://img713.imageshack.us/img713/8274/91kvkipng7tgyuk78k.jpg[/img]


[color=blue][size=4][b]Star.Wars.Original.Trilogy.1983.Return.of.the.Jedi.BDRip.XVID.AC3.HQ.Hive-CM8[/b][/size][/color]


[b]Thx Hive

CM8 Doing It Right The First Time :D


Source: Bluray

Video: 720x304 @bitrate 1800 2pass
Audio: English DTS to AC3 5.1 @448
Sample: yes included[/b]


[url]http://www.imdb.com/title/tt0086190/[/url]


General
Complete name                    : Star.Wars.Original.Trilogy.1983.Return.of.the.Jedi.BDRip.XVID.AC3.HQ.Hive-CM8.avi
Format                           : AVI
Format/Info                      : Audio Video Interleave
Format profile                   : OpenDML
Format settings                  : rec
File size                        : 2.13 GiB
Duration                         : 2h 14mn
Overall bit rate                 : 2 264 Kbps
Writing application              : AVI-Mux GUI 1.17.7, Aug  8 2006  20:59:17

Video
ID                               : 0
Format                           : MPEG-4 Visual
Format profile                   : Advanced Simple@L5
Format settings, BVOP            : 3
Format settings, QPel            : Yes
Format settings, GMC             : No warppoints
Format settings, Matrix          : Default (H.263)
Muxing mode                      : Packed bitstream
Codec ID                         : XVID
Codec ID/Hint                    : XviD
Duration                         : 2h 14mn
Bit rate                         : 1 810 Kbps
Width                            : 720 pixels
Height                           : 304 pixels
Display aspect ratio             : 2.35:1
Frame rate                       : 23.976 fps
Color space                      : YUV
Chroma subsampling               : 4:2:0
Bit depth                        : 8 bits
Scan type                        : Progressive
Compression mode                 : Lossy
Bits/(Pixel*Frame)               : 0.345
Stream size                      : 1.70 GiB (80%)
Writing library                  : XviD 1.2.1 (UTC 2008-12-04)

Audio
ID                               : 1
Format                           : AC-3
Format/Info                      : Audio Coding 3
Mode extension                   : CM (complete main)
Codec ID                         : 2000
Duration                         : 2h 14mn
Bit rate mode                    : Constant
Bit rate                         : 448 Kbps
Channel(s)                       : 6 channels
Channel positions                : Front: L C R, Side: L R, LFE
Sampling rate                    : 48.0 KHz
Bit depth                        : 16 bits
Compression mode                 : Lossy
Stream size                      : 432 MiB (20%)
Alignment                        : Aligned on interleaves
Interleave, duration             : 64 ms (1.53 video frames)
Interleave, preload duration     : 192 ms


Plot:
After rescuing Han Solo from the palace of Jabba the Hutt, the Rebels attempt to destroy the
Second Death Star, while Luke Skywalker tries to bring his father back to the Light Side of
the Force.


Cast:
Mark Hamill      ...    Luke Skywalker
Harrison Ford    ...    Han Solo
Carrie Fisher    ...    Princess Leia Organa
Alec Guinness    ...    Ben Obi-Wan Kenobi
James Earl Jones ...    Darth Vader (voice)


[img]http://img12.imageshack.us/img12/9586/85714456.png[/img]
[img]http://img268.imageshack.us/img268/737/jejepl.png[/img]
[img]http://img823.imageshack.us/img823/4760/jejejee.png[/img]
[img]http://img593.imageshack.us/img593/1180/jejejjee.png[/img]
[img]http://img405.imageshack.us/img405/7501/jejejjejee.png[/img]
[img]http://img571.imageshack.us/img571/3456/jejejjejejee.png[/img]



Greetz

ViSiON,SiC,SANTi,3LT0N,YanKeeS,MAGNET,THC,T0XiC,LKRG,FANTASIA-PLAY,FANTASIA-M,BHRG,FLAWL3SS,
D2U,WBZ,NOVA,Vik,Rapeseed,SAFC,goldadvance,MEMORY100,scumbag,KaN1vE,Unevano,Pinnz,Wayne
Mr Hive,cedrict wink,and all P2P groups
Great Work Guys :D

FYS

LOOKING FOR ANYTHING YOU WANT TO LOOK AND SOUND BETTER

CM8@hushmail.com